<?xml version="1.0" encoding="UTF-8" standalone="no"?>
<!-- Created with Inkscape (http://www.inkscape.org/) -->

<svg
   width="689.26105mm"
   height="95.322891mm"
   viewBox="0 0 689.26104 95.322891"
   version="1.1"
   id="svg135"
   xml:space="preserve"
   sodipodi:docname="logo_with_text.svg"
   inkscape:version="1.2 (dc2aedaf03, 2022-05-15)"
   xmlns:inkscape="http://www.inkscape.org/namespaces/inkscape"
   xmlns:sodipodi="http://sodipodi.sourceforge.net/DTD/sodipodi-0.dtd"
   xmlns="http://www.w3.org/2000/svg"
   xmlns:svg="http://www.w3.org/2000/svg"><sodipodi:namedview
   id="namedview139"
   pagecolor="#505050"
   bordercolor="#eeeeee"
   borderopacity="1"
   inkscape:showpageshadow="0"
   inkscape:pageopacity="0"
   inkscape:pagecheckerboard="0"
   inkscape:deskcolor="#505050"
   inkscape:document-units="mm"
   showgrid="false"
   inkscape:zoom="0.42353241"
   inkscape:cx="1167.5612"
   inkscape:cy="214.85959"
   inkscape:window-width="1920"
   inkscape:window-height="1009"
   inkscape:window-x="1912"
   inkscape:window-y="-8"
   inkscape:window-maximized="1"
   inkscape:current-layer="svg135" /><defs
   id="defs132"><rect
     x="540.93286"
     y="0"
     width="881.5202"
     height="345.59598"
     id="rect306" /></defs>
     <style
   id="style133">
    * {
      fill: #9b8c68;
    }
    @media (prefers-color-scheme: dark) {
      *  {
        fill: #d1bd8d;
      }
    }
    </style>
     <g
   id="layer1"
   transform="matrix(1.1661678,0,0,1.1661678,-48.063068,-34.893106)"
   style="fill:#ffffff;stroke-width:0.85751"><path
     id="path319"
     style="fill:#ffffff;stroke:none;stroke-width:0.226882px;stroke-linecap:butt;stroke-linejoin:miter;stroke-opacity:1"
     d="m 103.09913,29.921171 c -21.499663,10.977114 -38.68022,13.423384 -61.884591,8.394836 7.130135,52.559346 34.088726,68.846333 50.427929,53.066012 -0.623732,-1.737113 -0.851289,-3.595546 -0.533301,-5.491138 0.693511,-4.134329 3.761043,-7.27087 7.545276,-9.019604 0.641684,-0.296529 1.309613,-0.556089 1.997297,-0.783415 3.76046,-11.13606 5.10226,-26.596502 2.44739,-46.166691 z M 86.670162,51.411849 c 2.451179,-0.0985 5.167813,1.67024 7.932849,5.386751 -5.745609,-1.47579 -9.898351,-0.944825 -14.928288,2.0252 1.67524,-4.508397 3.932828,-6.997265 6.508647,-7.367509 0.160989,-0.02314 0.32338,-0.03787 0.486792,-0.04444 z m -23.12417,3.040124 c 2.451237,-0.09851 5.168331,1.670238 7.933366,5.386752 -5.74561,-1.475791 -9.897829,-0.945345 -14.927771,2.024682 1.675242,-4.508399 3.932305,-6.996745 6.50813,-7.366992 0.160989,-0.02314 0.322859,-0.03787 0.486275,-0.04444 z m 30.592965,15.388725 c -8.168824,19.934299 -21.06842,21.324953 -33.652727,4.565096 14.00025,8.048002 22.597691,6.095744 33.652727,-4.565096 z" /><path
     id="path661"
     style="fill:#ffffff;stroke:none;stroke-width:2.40495;stroke-linecap:round"
     d="m 128.95544,34.276965 -8.10267,48.308784 a 15.617348,10.662879 9.5213944 0 0 -9.46784,-4.105401 15.617348,10.662879 9.5213944 0 0 -17.165859,7.932526 15.617348,10.662879 9.5213944 0 0 13.638239,13.099499 15.617348,10.662879 9.5213944 0 0 17.16589,-7.932833 l 6.72517,-40.096024 c 15.36098,2.870723 16.42326,17.710383 7.99403,30.442583 l 1.01394,0.497706 c 7.49648,-8.030445 9.24192,-17.507887 5.62187,-25.70443 -3.62007,-8.196541 -13.42405,-12.5284 -11.89923,-21.515965 z" /></g><text
   xml:space="preserve"
   transform="matrix(2.1152862,0,0,2.1152862,-993.94287,-5.5619062)"
   id="text304"
   style="font-style:normal;font-weight:normal;font-size:40px;line-height:1.25;font-family:sans-serif;white-space:pre;shape-inside:url(#rect306);fill:#ffffff;fill-opacity:1;stroke:none;stroke-width:0.125081"><tspan
     x="540.93359"
     y="36.493213"
     id="tspan41270"><tspan
       style="font-family:'Dancing Script';-inkscape-font-specification:'Dancing Script'"
       id="tspan41268">Ensemble InSzene</tspan></tspan></text></svg>
