<?xml version="1.0" encoding="UTF-8" standalone="no"?>
<!-- Created with Inkscape (http://www.inkscape.org/) -->

<svg
   width="210mm"
   height="297mm"
   viewBox="0 0 210 297"
   version="1.1"
   id="svg135"
   xml:space="preserve"
   sodipodi:docname="logo_temp.svg"
   inkscape:version="1.2 (dc2aedaf03, 2022-05-15)"
   xmlns:inkscape="http://www.inkscape.org/namespaces/inkscape"
   xmlns:sodipodi="http://sodipodi.sourceforge.net/DTD/sodipodi-0.dtd"
   xmlns="http://www.w3.org/2000/svg"
   xmlns:svg="http://www.w3.org/2000/svg"><sodipodi:namedview
     id="namedview137"
     pagecolor="#505050"
     bordercolor="#eeeeee"
     borderopacity="1"
     inkscape:showpageshadow="0"
     inkscape:pageopacity="0"
     inkscape:pagecheckerboard="0"
     inkscape:deskcolor="#505050"
     inkscape:document-units="mm"
     showgrid="false"
     inkscape:zoom="0.046602746"
     inkscape:cx="1480.5994"
     inkscape:cy="-107.28981"
     inkscape:window-width="1920"
     inkscape:window-height="1017"
     inkscape:window-x="1912"
     inkscape:window-y="-8"
     inkscape:window-maximized="1"
     inkscape:current-layer="layer1" /><defs
     id="defs132" /><g
     inkscape:label="Ebene 1"
     inkscape:groupmode="layer"
     id="layer1"><rect
       style="fill:#ffffff;stroke:none;stroke-width:2.80458;stroke-linecap:round"
       id="rect786"
       width="190.19354"
       height="127.38709"
       x="15.080646"
       y="12.241936" /><path
       id="path319"
       style="fill:#000000;stroke:none;stroke-width:0.264583px;stroke-linecap:butt;stroke-linejoin:miter;stroke-opacity:1"
       d="M 41.214519,38.316224 C 52.592536,122.18856 114.4646,113.70066 103.09916,29.92103 81.599472,40.898155 64.418914,43.344777 41.214519,38.316224 Z m 21.845019,16.180192 c 2.575826,-0.370242 5.470545,1.377782 8.419918,5.342067 -5.745616,-1.475792 -9.898031,-0.944919 -14.927978,2.025111 1.675244,-4.508404 3.932233,-6.996931 6.50806,-7.367178 z m 23.123839,-3.03995 c 2.575823,-0.370242 5.470036,1.377853 8.419411,5.342136 -5.745615,-1.475792 -9.89804,-0.944917 -14.927982,2.025111 1.675241,-4.508401 3.932749,-6.997002 6.508571,-7.367247 z m -25.697375,22.94941 c 14.000264,8.04801 22.597937,6.095528 33.652984,-4.565322 -8.168832,19.934319 -21.068665,21.325195 -33.652984,4.565322 z" /><path
       id="path732"
       style="fill:#000000;stroke:#ffffff;stroke-width:6.305;stroke-linecap:round;stroke-dasharray:none"
       d="m 128.95544,34.276965 -8.10267,48.308784 a 15.617348,10.662879 9.5213944 0 0 -9.46784,-4.105401 15.617348,10.662879 9.5213944 0 0 -17.165859,7.932526 15.617348,10.662879 9.5213944 0 0 13.638239,13.099499 15.617348,10.662879 9.5213944 0 0 17.16589,-7.932833 l 6.72517,-40.096024 c 15.36098,2.870723 16.42326,17.710383 7.99403,30.442583 l 1.01394,0.497706 c 7.49648,-8.030445 9.24192,-17.507887 5.62187,-25.70443 -3.62007,-8.196541 -13.42405,-12.5284 -11.89923,-21.515965 z" /><path
       style="fill:#000000;stroke:none;stroke-width:0.264583px;stroke-linecap:butt;stroke-linejoin:miter;stroke-opacity:1"
       d="m -146.26308,63.942898 c 22.31787,8.102243 39.67137,7.987366 62.451609,0 0,84.547272 -62.451609,84.640832 -62.451609,0 z"
       id="path597"
       sodipodi:nodetypes="ccc" /><path
       style="fill:#ff0000;stroke:none;stroke-width:0.264582px;stroke-linecap:butt;stroke-linejoin:miter;stroke-opacity:1"
       d="m -132.01778,102.29551 c 12.79133,9.85699 21.57318,9.07799 33.961006,0 -10.774416,18.65529 -23.743886,18.29945 -33.961006,0 z"
       id="path599"
       sodipodi:nodetypes="ccc" /><path
       style="fill:#ff0000;stroke:none;stroke-width:0.264582px;stroke-linecap:butt;stroke-linejoin:miter;stroke-opacity:1"
       d="m -110.90844,89.434612 c 5.38355,-2.266915 9.56959,-2.234771 15.064684,0 -4.779394,-8.649579 -10.532494,-8.484588 -15.064684,0 z"
       id="path601"
       sodipodi:nodetypes="ccc" /><path
       style="fill:#ff0000;stroke:none;stroke-width:0.264582px;stroke-linecap:butt;stroke-linejoin:miter;stroke-opacity:1"
       d="m -134.2308,89.338372 c 5.38356,-2.266915 9.5696,-2.234771 15.06469,0 -4.7794,-8.649579 -10.5325,-8.484588 -15.06469,0 z"
       id="path603"
       sodipodi:nodetypes="ccc" /><path
       id="path661"
       style="fill:#000000;stroke:none;stroke-width:2.80458;stroke-linecap:round"
       d="m 128.95544,34.276965 -8.10267,48.308784 a 15.617348,10.662879 9.5213944 0 0 -9.46784,-4.105401 15.617348,10.662879 9.5213944 0 0 -17.165859,7.932526 15.617348,10.662879 9.5213944 0 0 13.638239,13.099499 15.617348,10.662879 9.5213944 0 0 17.16589,-7.932833 l 6.72517,-40.096024 c 15.36098,2.870723 16.42326,17.710383 7.99403,30.442583 l 1.01394,0.497706 c 7.49648,-8.030445 9.24192,-17.507887 5.62187,-25.70443 -3.62007,-8.196541 -13.42405,-12.5284 -11.89923,-21.515965 z" /></g></svg>
